<?xml version="1.0" encoding="UTF-8"?>
<svg xmlns="http://www.w3.org/2000/svg" viewBox="0 0 64 64" role="img" aria-label="InCittà">
  <circle cx="32" cy="32" r="31" fill="#2563eb"/>
  <circle cx="32" cy="32" r="28.5" fill="none" stroke="#071a36" stroke-width="2"/>
  <path
    d="M32 10.5C21.4 10.5 13 18.8 13 29.1c0 11.7 10.4 20.7 19 29.4 8.6-8.7 19-17.7 19-29.4C51 18.8 42.6 10.5 32 10.5Z"
    fill="none"
    stroke="#facc15"
    stroke-width="4.5"
    stroke-linejoin="round"
  />
  <path
    d="M20 33.5v-7h6v5h5v-11h6v11h6v-5h1v7"
    fill="none"
    stroke="#facc15"
    stroke-width="2.6"
    stroke-linecap="round"
    stroke-linejoin="round"
  />
  <path
    d="M21 38.5h22M23 38.5v4.5h5v-4.5M30 38.5v4.5h5v-4.5M37 38.5v4.5h5v-4.5"
    fill="none"
    stroke="#facc15"
    stroke-width="2.2"
    stroke-linecap="round"
    stroke-linejoin="round"
  />
  <circle cx="32" cy="16.5" r="2" fill="#facc15"/>
</svg>
